<?xml version="1.0" encoding="utf-8"?>
<!-- Generator: Adobe Illustrator 16.0.0, SVG Export Plug-In . SVG Version: 6.00 Build 0)  -->
<!DOCTYPE svg PUBLIC "-//W3C//DTD SVG 1.1//EN" "http://www.w3.org/Graphics/SVG/1.1/DTD/svg11.dtd">
<svg version="1.1" id="Layer_1" xmlns="http://www.w3.org/2000/svg" xmlns:xlink="http://www.w3.org/1999/xlink" x="0px" y="0px"
	 width="18px" height="18px" viewBox="3 3 18 18" enable-background="new 3 3 18 18" xml:space="preserve">
<path fill="none" d="M0,0h24v24H0V0z"/>
<path d="M3,5v3c0,0.55,0.45,1,1,1s1-0.45,1-1V6c0-0.55,0.45-1,1-1h2c0.55,0,1-0.45,1-1S8.55,3,8,3H5C3.9,3,3,3.9,3,5z M4,15
	c-0.55,0-1,0.45-1,1v3c0,1.1,0.9,2,2,2h3c0.55,0,1-0.45,1-1s-0.45-1-1-1H6c-0.55,0-1-0.45-1-1v-2C5,15.45,4.55,15,4,15z M19,18
	c0,0.55-0.45,1-1,1h-2c-0.55,0-1,0.45-1,1s0.45,1,1,1h3c1.1,0,2-0.9,2-2v-3c0-0.55-0.45-1-1-1s-1,0.45-1,1V18z M19,3h-3
	c-0.55,0-1,0.45-1,1s0.45,1,1,1h2c0.55,0,1,0.45,1,1v2c0,0.55,0.45,1,1,1s1-0.45,1-1V5C21,3.9,20.1,3,19,3z"/>
</svg>
