<svg width="22" height="22" viewBox="0 0 22 22" fill="none" xmlns="http://www.w3.org/2000/svg">
<path d="M15.025 8.70831V8.80831H15.125H16.2708C16.5285 8.80831 16.7837 8.85907 17.0218 8.9577C17.2599 9.05632 17.4763 9.20088 17.6585 9.38312C17.8407 9.56535 17.9853 9.78169 18.0839 10.0198C18.1825 10.2579 18.2333 10.5131 18.2333 10.7708V19.4791C18.2333 19.635 18.1714 19.7844 18.0612 19.8946C17.951 20.0047 17.8016 20.0666 17.6458 20.0666H15.225V16.7291C15.225 16.0414 14.6669 15.4833 13.9791 15.4833H8.02079C7.33306 15.4833 6.77496 16.0414 6.77496 16.7291V20.0666H4.35413C4.19831 20.0666 4.04888 20.0047 3.9387 19.8946C3.82852 19.7844 3.76663 19.635 3.76663 19.4791V3.89581C3.76663 3.37533 3.97339 2.87616 4.34143 2.50812C4.70947 2.14008 5.20864 1.93331 5.72913 1.93331H13.0625C13.5829 1.93331 14.0821 2.14008 14.4502 2.50812C14.8182 2.87616 15.025 3.37533 15.025 3.89581V8.70831ZM13.65 17.0583V20.0666H11.7875V17.0583H13.65ZM10.2125 17.0583V20.0666H8.34996V17.0583H10.2125ZM6.77496 5.95831C6.77496 6.22795 6.88207 6.48654 7.07273 6.6772C7.2634 6.86787 7.52199 6.97498 7.79163 6.97498C8.06126 6.97498 8.31986 6.86787 8.51052 6.6772C8.70118 6.48654 8.80829 6.22795 8.80829 5.95831C8.80829 5.68868 8.70118 5.43008 8.51052 5.23942C8.31986 5.04876 8.06126 4.94165 7.79163 4.94165C7.52199 4.94165 7.2634 5.04876 7.07273 5.23942C6.88207 5.43008 6.77496 5.68868 6.77496 5.95831ZM7.79163 11.3583C7.52199 11.3583 7.2634 11.4654 7.07273 11.6561C6.88207 11.8467 6.77496 12.1053 6.77496 12.375C6.77496 12.6446 6.88207 12.9032 7.07273 13.0939C7.2634 13.2845 7.52199 13.3916 7.79163 13.3916C8.06126 13.3916 8.31986 13.2845 8.51052 13.0939C8.70118 12.9032 8.80829 12.6446 8.80829 12.375C8.80829 12.1053 8.70118 11.8467 8.51052 11.6561C8.31986 11.4654 8.06126 11.3583 7.79163 11.3583ZM7.79163 8.14998C7.52199 8.14998 7.2634 8.25709 7.07273 8.44775C6.88207 8.63842 6.77496 8.89701 6.77496 9.16665C6.77496 9.43628 6.88207 9.69488 7.07273 9.88554C7.2634 10.0762 7.52199 10.1833 7.79163 10.1833C8.06126 10.1833 8.31986 10.0762 8.51052 9.88554C8.70118 9.69488 8.80829 9.43628 8.80829 9.16665C8.80829 8.89701 8.70118 8.63842 8.51052 8.44775C8.31986 8.25709 8.06126 8.14998 7.79163 8.14998ZM11 4.94165C10.7303 4.94165 10.4717 5.04876 10.2811 5.23942C10.0904 5.43008 9.98329 5.68868 9.98329 5.95831C9.98329 6.22795 10.0904 6.48654 10.2811 6.6772C10.4717 6.86787 10.7303 6.97498 11 6.97498C11.2696 6.97498 11.5282 6.86787 11.7189 6.6772C11.9095 6.48654 12.0166 6.22795 12.0166 5.95831C12.0166 5.68868 11.9095 5.43008 11.7189 5.23942C11.5282 5.04876 11.2696 4.94165 11 4.94165ZM11 11.3583C10.7303 11.3583 10.4717 11.4654 10.2811 11.6561C10.0904 11.8467 9.98329 12.1053 9.98329 12.375C9.98329 12.6446 10.0904 12.9032 10.2811 13.0939C10.4717 13.2845 10.7303 13.3916 11 13.3916C11.2696 13.3916 11.5282 13.2845 11.7189 13.0939C11.9095 12.9032 12.0166 12.6446 12.0166 12.375C12.0166 12.1053 11.9095 11.8467 11.7189 11.6561C11.5282 11.4654 11.2696 11.3583 11 11.3583ZM14.2083 11.3583C13.9387 11.3583 13.6801 11.4654 13.4894 11.6561C13.2987 11.8467 13.1916 12.1053 13.1916 12.375C13.1916 12.6446 13.2987 12.9032 13.4894 13.0939C13.6801 13.2845 13.9387 13.3916 14.2083 13.3916C14.4779 13.3916 14.7365 13.2845 14.9272 13.0939C15.1178 12.9032 15.225 12.6446 15.225 12.375C15.225 12.1053 15.1178 11.8467 14.9272 11.6561C14.7365 11.4654 14.4779 11.3583 14.2083 11.3583ZM11 8.14998C10.7303 8.14998 10.4717 8.25709 10.2811 8.44775C10.0904 8.63842 9.98329 8.89701 9.98329 9.16665C9.98329 9.43628 10.0904 9.69488 10.2811 9.88554C10.4717 10.0762 10.7303 10.1833 11 10.1833C11.2696 10.1833 11.5282 10.0762 11.7189 9.88554C11.9095 9.69488 12.0166 9.43628 12.0166 9.16665C12.0166 8.89701 11.9095 8.63842 11.7189 8.44775C11.5282 8.25709 11.2696 8.14998 11 8.14998Z" fill="#FFE6A4" stroke="black" stroke-width="0.2"/>
</svg>
