<?xml version="1.0" encoding="utf-8"?>
<!-- Generator: Adobe Illustrator 16.0.0, SVG Export Plug-In . SVG Version: 6.00 Build 0)  -->
<!DOCTYPE svg PUBLIC "-//W3C//DTD SVG 1.1//EN" "http://www.w3.org/Graphics/SVG/1.1/DTD/svg11.dtd">
<svg version="1.1" id="Layer_1" xmlns="http://www.w3.org/2000/svg" xmlns:xlink="http://www.w3.org/1999/xlink" x="0px" y="0px"
	 width="14px" height="14px" viewBox="5 5 14 14" enable-background="new 5 5 14 14" xml:space="preserve">
<path fill="none" d="M0,0h24v24H0V0z"/>
<path d="M18,13h-5v5c0,0.55-0.45,1-1,1s-1-0.45-1-1v-5H6c-0.55,0-1-0.45-1-1s0.45-1,1-1h5V6c0-0.55,0.45-1,1-1s1,0.45,1,1v5h5
	c0.55,0,1,0.45,1,1S18.55,13,18,13z"/>
</svg>
